<mxfile host="Electron" modified="2024-05-07T13:48:34.510Z" agent="Mozilla/5.0 (X11; Linux x86_64) AppleWebKit/537.36 (KHTML, like Gecko) draw.io/24.2.5 Chrome/120.0.6099.109 Electron/28.1.0 Safari/537.36" etag="KsaFyyGcZ-n5WKQsGeUm" version="24.2.5" type="device">
  <diagram name="Page-1" id="uUPAUxA9SZ3XyGcMofOb">
    <mxGraphModel dx="1145" dy="698" grid="1" gridSize="10" guides="1" tooltips="1" connect="1" arrows="1" fold="1" page="1" pageScale="1" pageWidth="1200" pageHeight="1920" math="0" shadow="0">
      <root>
        <mxCell id="0" />
        <mxCell id="1" parent="0" />
        <mxCell id="6sJ5Hgg-mMgDVNJeJztm-14" value="" style="rounded=0;whiteSpace=wrap;html=1;fillColor=#f5f5f5;fontColor=#333333;strokeColor=#666666;movable=0;resizable=0;rotatable=0;deletable=0;editable=0;locked=1;connectable=0;" vertex="1" parent="1">
          <mxGeometry x="20" y="20" width="970" height="570" as="geometry" />
        </mxCell>
        <mxCell id="uIekJ36rjzm8djXn40lv-4" value="" style="rounded=0;whiteSpace=wrap;html=1;glass=0;shadow=0;fillColor=#dae8fc;movable=0;resizable=0;rotatable=0;deletable=0;editable=0;locked=1;connectable=0;strokeColor=#6c8ebf;" parent="1" vertex="1">
          <mxGeometry x="40" y="40" width="810" height="170" as="geometry" />
        </mxCell>
        <mxCell id="uIekJ36rjzm8djXn40lv-1" value="Configure Source" style="rounded=1;whiteSpace=wrap;html=1;" parent="1" vertex="1">
          <mxGeometry x="80" y="110" width="180" height="60" as="geometry" />
        </mxCell>
        <mxCell id="uIekJ36rjzm8djXn40lv-2" value="Configure Destination" style="rounded=1;whiteSpace=wrap;html=1;" parent="1" vertex="1">
          <mxGeometry x="350" y="110" width="170" height="60" as="geometry" />
        </mxCell>
        <mxCell id="uIekJ36rjzm8djXn40lv-3" value="" style="endArrow=classic;html=1;rounded=0;exitX=1;exitY=0.5;exitDx=0;exitDy=0;entryX=0;entryY=0.5;entryDx=0;entryDy=0;flowAnimation=1;" parent="1" source="uIekJ36rjzm8djXn40lv-1" target="uIekJ36rjzm8djXn40lv-2" edge="1">
          <mxGeometry width="50" height="50" relative="1" as="geometry">
            <mxPoint x="610" y="340" as="sourcePoint" />
            <mxPoint x="660" y="290" as="targetPoint" />
          </mxGeometry>
        </mxCell>
        <mxCell id="uIekJ36rjzm8djXn40lv-5" value="Server" style="text;html=1;align=center;verticalAlign=middle;whiteSpace=wrap;rounded=0;" parent="1" vertex="1">
          <mxGeometry x="70" y="60" width="60" height="30" as="geometry" />
        </mxCell>
        <mxCell id="6sJ5Hgg-mMgDVNJeJztm-1" value="Configure Routine" style="rounded=1;whiteSpace=wrap;html=1;" vertex="1" parent="1">
          <mxGeometry x="620" y="110" width="170" height="60" as="geometry" />
        </mxCell>
        <mxCell id="6sJ5Hgg-mMgDVNJeJztm-2" value="" style="endArrow=classic;html=1;rounded=0;entryX=0;entryY=0.5;entryDx=0;entryDy=0;flowAnimation=1;exitX=1;exitY=0.5;exitDx=0;exitDy=0;" edge="1" parent="1" source="uIekJ36rjzm8djXn40lv-2" target="6sJ5Hgg-mMgDVNJeJztm-1">
          <mxGeometry width="50" height="50" relative="1" as="geometry">
            <mxPoint x="580" y="230" as="sourcePoint" />
            <mxPoint x="660" y="230" as="targetPoint" />
          </mxGeometry>
        </mxCell>
        <mxCell id="6sJ5Hgg-mMgDVNJeJztm-3" value="" style="rounded=0;whiteSpace=wrap;html=1;glass=0;shadow=0;fillColor=#d5e8d4;movable=1;resizable=1;rotatable=1;deletable=1;editable=1;locked=0;connectable=1;strokeColor=#82b366;" vertex="1" parent="1">
          <mxGeometry x="40" y="315" width="810" height="250" as="geometry" />
        </mxCell>
        <mxCell id="6sJ5Hgg-mMgDVNJeJztm-4" value="Worker" style="text;html=1;align=center;verticalAlign=middle;whiteSpace=wrap;rounded=0;" vertex="1" parent="1">
          <mxGeometry x="70" y="335" width="60" height="30" as="geometry" />
        </mxCell>
        <mxCell id="6sJ5Hgg-mMgDVNJeJztm-6" value="Register&lt;div&gt;On Boot&lt;/div&gt;" style="endArrow=classic;html=1;rounded=0;exitX=0.25;exitY=0;exitDx=0;exitDy=0;entryX=0.25;entryY=1;entryDx=0;entryDy=0;flowAnimation=1;" edge="1" parent="1" source="6sJ5Hgg-mMgDVNJeJztm-3" target="uIekJ36rjzm8djXn40lv-4">
          <mxGeometry width="50" height="50" relative="1" as="geometry">
            <mxPoint x="190" y="330" as="sourcePoint" />
            <mxPoint x="280" y="330" as="targetPoint" />
          </mxGeometry>
        </mxCell>
        <mxCell id="6sJ5Hgg-mMgDVNJeJztm-7" value="Deregister&lt;div&gt;On Shutdown&lt;/div&gt;" style="endArrow=classic;html=1;rounded=0;exitX=0.75;exitY=0;exitDx=0;exitDy=0;entryX=0.75;entryY=1;entryDx=0;entryDy=0;flowAnimation=1;" edge="1" parent="1" source="6sJ5Hgg-mMgDVNJeJztm-3" target="uIekJ36rjzm8djXn40lv-4">
          <mxGeometry width="50" height="50" relative="1" as="geometry">
            <mxPoint x="611" y="390" as="sourcePoint" />
            <mxPoint x="610" y="230" as="targetPoint" />
          </mxGeometry>
        </mxCell>
        <mxCell id="6sJ5Hgg-mMgDVNJeJztm-8" value="" style="endArrow=classic;html=1;rounded=0;exitX=0.5;exitY=1;exitDx=0;exitDy=0;entryX=0.5;entryY=0;entryDx=0;entryDy=0;flowAnimation=1;" edge="1" parent="1" source="uIekJ36rjzm8djXn40lv-4" target="6sJ5Hgg-mMgDVNJeJztm-3">
          <mxGeometry width="50" height="50" relative="1" as="geometry">
            <mxPoint x="480" y="290" as="sourcePoint" />
            <mxPoint x="570" y="290" as="targetPoint" />
          </mxGeometry>
        </mxCell>
        <mxCell id="6sJ5Hgg-mMgDVNJeJztm-9" value="Query&amp;nbsp;&lt;div&gt;Work in Progress&lt;/div&gt;" style="edgeLabel;html=1;align=center;verticalAlign=middle;resizable=0;points=[];" vertex="1" connectable="0" parent="6sJ5Hgg-mMgDVNJeJztm-8">
          <mxGeometry x="-0.3396" y="-1" relative="1" as="geometry">
            <mxPoint x="1" y="15" as="offset" />
          </mxGeometry>
        </mxCell>
        <mxCell id="6sJ5Hgg-mMgDVNJeJztm-15" value="DB" style="shape=cylinder3;whiteSpace=wrap;html=1;boundedLbl=1;backgroundOutline=1;size=15;" vertex="1" parent="1">
          <mxGeometry x="890" y="230" width="60" height="80" as="geometry" />
        </mxCell>
        <mxCell id="6sJ5Hgg-mMgDVNJeJztm-17" value="" style="endArrow=classic;html=1;rounded=0;entryX=0;entryY=0.5;entryDx=0;entryDy=0;flowAnimation=1;exitX=1;exitY=0.5;exitDx=0;exitDy=0;entryPerimeter=0;edgeStyle=orthogonalEdgeStyle;" edge="1" parent="1" source="uIekJ36rjzm8djXn40lv-4" target="6sJ5Hgg-mMgDVNJeJztm-15">
          <mxGeometry width="50" height="50" relative="1" as="geometry">
            <mxPoint x="770" y="269.5" as="sourcePoint" />
            <mxPoint x="870" y="269.5" as="targetPoint" />
          </mxGeometry>
        </mxCell>
        <mxCell id="6sJ5Hgg-mMgDVNJeJztm-18" value="" style="endArrow=classic;html=1;rounded=0;entryX=0;entryY=0.5;entryDx=0;entryDy=0;flowAnimation=1;exitX=1;exitY=0.5;exitDx=0;exitDy=0;entryPerimeter=0;edgeStyle=orthogonalEdgeStyle;" edge="1" parent="1" source="6sJ5Hgg-mMgDVNJeJztm-3" target="6sJ5Hgg-mMgDVNJeJztm-15">
          <mxGeometry width="50" height="50" relative="1" as="geometry">
            <mxPoint x="860" y="135" as="sourcePoint" />
            <mxPoint x="900" y="280" as="targetPoint" />
          </mxGeometry>
        </mxCell>
        <mxCell id="6sJ5Hgg-mMgDVNJeJztm-19" value="File Source" style="rounded=0;whiteSpace=wrap;html=1;fillColor=#fff2cc;strokeColor=#d6b656;" vertex="1" parent="1">
          <mxGeometry x="182" y="651" width="120" height="60" as="geometry" />
        </mxCell>
        <mxCell id="6sJ5Hgg-mMgDVNJeJztm-20" value="File Destination" style="rounded=0;whiteSpace=wrap;html=1;fillColor=#e1d5e7;strokeColor=#9673a6;" vertex="1" parent="1">
          <mxGeometry x="588" y="651" width="120" height="60" as="geometry" />
        </mxCell>
        <mxCell id="6sJ5Hgg-mMgDVNJeJztm-22" value="Acquires Lock on&lt;div&gt;File Move Routine&lt;/div&gt;" style="rounded=1;whiteSpace=wrap;html=1;" vertex="1" parent="1">
          <mxGeometry x="65" y="410" width="120" height="60" as="geometry" />
        </mxCell>
        <mxCell id="6sJ5Hgg-mMgDVNJeJztm-23" value="Read/Delete&lt;div&gt;Files&lt;/div&gt;" style="endArrow=classic;html=1;rounded=0;exitX=0.5;exitY=0;exitDx=0;exitDy=0;entryX=0.25;entryY=1;entryDx=0;entryDy=0;flowAnimation=1;startArrow=classic;startFill=1;" edge="1" parent="1" source="6sJ5Hgg-mMgDVNJeJztm-19" target="6sJ5Hgg-mMgDVNJeJztm-3">
          <mxGeometry width="50" height="50" relative="1" as="geometry">
            <mxPoint x="391" y="735" as="sourcePoint" />
            <mxPoint x="390" y="630" as="targetPoint" />
          </mxGeometry>
        </mxCell>
        <mxCell id="6sJ5Hgg-mMgDVNJeJztm-24" value="Write Files" style="endArrow=classic;html=1;rounded=0;exitX=0.75;exitY=1;exitDx=0;exitDy=0;entryX=0.5;entryY=0;entryDx=0;entryDy=0;flowAnimation=1;startArrow=none;startFill=0;" edge="1" parent="1" source="6sJ5Hgg-mMgDVNJeJztm-3" target="6sJ5Hgg-mMgDVNJeJztm-20">
          <mxGeometry x="0.0073" width="50" height="50" relative="1" as="geometry">
            <mxPoint x="253" y="575" as="sourcePoint" />
            <mxPoint x="252" y="690" as="targetPoint" />
            <mxPoint as="offset" />
          </mxGeometry>
        </mxCell>
        <mxCell id="6sJ5Hgg-mMgDVNJeJztm-25" value="Lists files&amp;nbsp;&lt;div&gt;from source&lt;/div&gt;" style="rounded=1;whiteSpace=wrap;html=1;" vertex="1" parent="1">
          <mxGeometry x="225" y="410" width="120" height="60" as="geometry" />
        </mxCell>
        <mxCell id="6sJ5Hgg-mMgDVNJeJztm-27" value="" style="rounded=0;whiteSpace=wrap;html=1;fillColor=none;" vertex="1" parent="1">
          <mxGeometry x="363" y="350" width="325" height="160" as="geometry" />
        </mxCell>
        <mxCell id="6sJ5Hgg-mMgDVNJeJztm-28" value="For Each File" style="text;html=1;align=center;verticalAlign=middle;whiteSpace=wrap;rounded=0;" vertex="1" parent="1">
          <mxGeometry x="363" y="350" width="100" height="30" as="geometry" />
        </mxCell>
        <mxCell id="6sJ5Hgg-mMgDVNJeJztm-29" value="Reads Buffered&lt;div&gt;from Source&lt;/div&gt;" style="rounded=1;whiteSpace=wrap;html=1;" vertex="1" parent="1">
          <mxGeometry x="385" y="410" width="120" height="60" as="geometry" />
        </mxCell>
        <mxCell id="6sJ5Hgg-mMgDVNJeJztm-30" value="Writes Buffered&lt;div&gt;to Destination&lt;/div&gt;" style="rounded=1;whiteSpace=wrap;html=1;" vertex="1" parent="1">
          <mxGeometry x="545" y="410" width="120" height="60" as="geometry" />
        </mxCell>
        <mxCell id="6sJ5Hgg-mMgDVNJeJztm-31" value="" style="endArrow=classic;html=1;rounded=0;exitX=1;exitY=0.5;exitDx=0;exitDy=0;entryX=0;entryY=0.5;entryDx=0;entryDy=0;flowAnimation=1;" edge="1" parent="1" source="6sJ5Hgg-mMgDVNJeJztm-22" target="6sJ5Hgg-mMgDVNJeJztm-25">
          <mxGeometry width="50" height="50" relative="1" as="geometry">
            <mxPoint x="470" y="430" as="sourcePoint" />
            <mxPoint x="520" y="380" as="targetPoint" />
          </mxGeometry>
        </mxCell>
        <mxCell id="6sJ5Hgg-mMgDVNJeJztm-32" value="" style="endArrow=classic;html=1;rounded=0;exitX=1;exitY=0.5;exitDx=0;exitDy=0;entryX=0;entryY=0.5;entryDx=0;entryDy=0;flowAnimation=1;" edge="1" parent="1" source="6sJ5Hgg-mMgDVNJeJztm-25" target="6sJ5Hgg-mMgDVNJeJztm-29">
          <mxGeometry width="50" height="50" relative="1" as="geometry">
            <mxPoint x="210" y="450" as="sourcePoint" />
            <mxPoint x="250" y="450" as="targetPoint" />
          </mxGeometry>
        </mxCell>
        <mxCell id="6sJ5Hgg-mMgDVNJeJztm-33" value="" style="endArrow=classic;html=1;rounded=0;exitX=1;exitY=0.5;exitDx=0;exitDy=0;entryX=0;entryY=0.5;entryDx=0;entryDy=0;flowAnimation=1;" edge="1" parent="1" source="6sJ5Hgg-mMgDVNJeJztm-29" target="6sJ5Hgg-mMgDVNJeJztm-30">
          <mxGeometry width="50" height="50" relative="1" as="geometry">
            <mxPoint x="210" y="450" as="sourcePoint" />
            <mxPoint x="250" y="450" as="targetPoint" />
          </mxGeometry>
        </mxCell>
        <mxCell id="6sJ5Hgg-mMgDVNJeJztm-34" value="Releases Lock on&lt;div&gt;File Move Routine&lt;/div&gt;" style="rounded=1;whiteSpace=wrap;html=1;" vertex="1" parent="1">
          <mxGeometry x="705" y="410" width="120" height="60" as="geometry" />
        </mxCell>
        <mxCell id="6sJ5Hgg-mMgDVNJeJztm-35" value="" style="endArrow=classic;html=1;rounded=0;exitX=1;exitY=0.5;exitDx=0;exitDy=0;entryX=0;entryY=0.5;entryDx=0;entryDy=0;flowAnimation=1;" edge="1" parent="1" source="6sJ5Hgg-mMgDVNJeJztm-30" target="6sJ5Hgg-mMgDVNJeJztm-34">
          <mxGeometry width="50" height="50" relative="1" as="geometry">
            <mxPoint x="195" y="450" as="sourcePoint" />
            <mxPoint x="235" y="450" as="targetPoint" />
          </mxGeometry>
        </mxCell>
      </root>
    </mxGraphModel>
  </diagram>
</mxfile>
